<svg width="214" height="135" viewBox="0 0 214 135" fill="none" xmlns="http://www.w3.org/2000/svg">
<g clip-path="url(#clip0_417_184)">
<path d="M41.8137 53.788H29.8155C29.6933 51.6277 28.9971 49.9186 27.7244 48.6628C26.4517 47.4071 24.4528 46.7781 21.7253 46.7781C18.8157 46.7781 16.6185 47.4071 15.136 48.6628C13.6512 49.9208 12.9088 51.7744 12.9088 54.2281C12.9088 56.9752 13.6213 59.0332 15.0438 60.4046C16.4663 61.7781 18.5736 62.8138 21.361 63.5161L25.6332 64.5674C31.5101 66.0876 35.9645 68.4813 38.9963 71.7529C42.0258 75.0245 43.5406 79.3474 43.5406 84.7215C43.5406 91.0891 41.6315 95.952 37.8135 99.3103C33.9955 102.669 28.8149 104.349 22.2694 104.349H20.6325C14.087 104.349 9.04242 102.873 5.49877 99.9237C1.95281 96.9744 0.119889 92.4915 0 86.4729H11.9981C12.118 88.9266 12.9065 90.7535 14.3613 91.9492C15.8162 93.1472 17.9073 93.7451 20.6325 93.7451H22.2694C25.2989 93.7451 27.6022 93.0294 29.1769 91.5981C30.7516 90.1667 31.5401 88.0486 31.5401 85.246C31.5401 82.4434 30.8715 80.1075 29.5412 78.4117C28.2086 76.7181 26.0552 75.5201 23.0879 74.82L18.8157 73.8554C13.1809 72.6286 8.77267 70.5416 5.59099 67.5901C2.40931 64.6407 0.818475 60.1867 0.818475 54.2281C0.818475 48.6206 2.59145 44.1955 6.1351 40.9528C9.68106 37.7101 14.8755 36.0898 21.723 36.0898C28.5705 36.0898 33.2808 37.639 36.5847 40.735C39.8862 43.831 41.6292 48.1827 41.8114 53.7902L41.8137 53.788Z" fill="white"/>
<path d="M40.2505 1.02234H76.0651V11.7128H52.2509V27.7485H73.5198V38.439H52.2509V57.0151H77.792V67.6167H40.2505V1.02234Z" fill="white"/>
<path d="M121.409 55.0148V85.5082C121.409 91.4669 119.47 96.0964 115.592 99.3969C111.714 102.697 106.381 104.349 99.5934 104.349C92.8058 104.349 87.3232 102.697 83.5052 99.3969C79.6871 96.0964 77.7781 91.4669 77.7781 85.5082V55.0148C77.7781 49.0561 79.6871 44.4132 83.5052 41.0816C87.3232 37.7522 92.6859 36.0875 99.5934 36.0875C106.501 36.0875 111.711 37.7522 115.592 41.0816C119.47 44.411 121.409 49.0561 121.409 55.0148ZM109.318 84.7192V55.8905C109.318 52.7944 108.484 50.5008 106.819 49.0117C105.152 47.5226 102.743 46.778 99.5934 46.778C96.444 46.778 93.8802 47.5226 92.2755 49.0117C90.6685 50.5008 89.8662 52.7944 89.8662 55.8905V84.7192C89.8662 87.8152 90.6685 90.0933 92.2755 91.5535C93.8802 93.0137 96.3195 93.745 99.5934 93.745C102.867 93.745 105.152 93.016 106.819 91.5535C108.486 90.0933 109.318 87.8152 109.318 84.7192Z" fill="white"/>
<path d="M151.856 114.933V67.6145H163.946V116.597C163.946 122.556 162.037 127.112 158.219 130.266C154.401 133.42 149.188 134.998 142.585 134.998C135.982 134.998 130.691 133.42 126.905 130.266C123.117 127.112 121.224 122.556 121.224 116.597V67.6145H133.222V114.933C133.222 118.38 133.995 120.818 135.539 122.249C137.084 123.681 139.434 124.396 142.583 124.396C145.732 124.396 147.916 123.681 149.49 122.249C151.065 120.818 151.854 118.38 151.854 114.933H151.856Z" fill="white"/>
<path d="M199.717 67.6167H162.176V1.02234H174.174V57.0151H199.715V67.6167H199.717Z" fill="white"/>
<path d="M198.984 20.4119C204.289 17.9871 206.982 15.1578 206.982 10.7794C206.654 10.8461 206.41 10.8461 206.085 10.8461C202.576 10.8461 199.556 8.89243 199.556 5.65862C199.556 2.22255 202.332 0 206.085 0C211.226 0 214.002 3.36939 214.002 9.09468C214.002 16.0335 209.921 21.2876 201.76 24.7237L198.984 20.4119Z" fill="white"/>
</g>
<defs>
<clipPath id="clip0_417_184">
<rect width="214" height="135" fill="white"/>
</clipPath>
</defs>
</svg>
